<svg width="265" height="63" viewBox="0 0 265 63" fill="none" xmlns="http://www.w3.org/2000/svg">
<path d="M50.9907 39.2811H42.2865C41.9891 33.5475 39.6477 28.8983 34.9276 25.6082C31.6867 23.3504 28.0445 22.578 24.1272 22.7563C17.2441 23.0682 10.7698 28.7498 9.17909 35.9836C7.4992 43.6036 11.305 50.7037 19.593 55.1078C18.7902 57.373 18.0989 59.7422 17.0657 61.948C16.8576 62.3936 15.1777 62.609 14.4492 62.297C5.6409 58.4425 -0.223874 48.8544 0.00655493 38.8949C0.326181 25.6379 10.2123 15.0249 23.3021 13.9034C36.3696 12.7819 48.0026 21.4937 50.6413 34.461C50.9461 35.9687 50.8718 37.5506 50.9907 39.2811Z" fill="white"/>
<path d="M62.3636 19.481H71.4543C71.1422 27.7248 72.1754 35.887 69.9751 43.8412C66.9573 54.729 56.2535 62.1114 44.4347 61.6955C33.3147 61.3018 23.161 52.8797 20.7675 42.0068C20.4925 40.7516 20.3215 39.4593 20.2026 38.1745C20.1134 37.1867 20.1877 36.1841 20.1877 35.0181C20.9162 34.9809 21.4514 34.9066 21.9791 34.9289C24.0158 34.9958 26.4465 34.4462 27.9628 35.3745C29.1298 36.095 29.1075 38.6944 29.6576 40.4397C31.9544 47.6958 37.4699 52.2782 44.4273 52.7461C51.4368 53.2139 58.0226 49.5673 60.7357 43.0242C61.9027 40.2169 62.148 36.9268 62.319 33.8297C62.5717 29.136 62.3859 24.4124 62.3859 19.4661L62.3636 19.481Z" fill="white"/>
<path d="M62.6465 10.0487V1.29239H71.2021V10.0487H62.6465Z" fill="white"/>
<path d="M93.3081 50.7612H95.344V61.1367H93.3081V50.7612Z" fill="white"/>
<path d="M100.26 50.7612H102.043L111.907 58.3615V50.7612H113.943V61.1525H112.16L102.296 53.5365V61.1367H100.26V50.7612Z" fill="white"/>
<path d="M118.848 50.7612H120.631L130.495 58.3615V50.7612H132.531V61.1525H130.747L120.884 53.5365V61.1367H118.848V50.7612Z" fill="white"/>
<path d="M140.103 50.7612H149.02C149.683 50.7612 150.361 50.9347 150.929 51.4235C151.482 51.8966 151.86 52.6692 151.86 53.568V58.3457C151.86 59.2288 151.482 60.0014 150.929 60.4902C150.361 60.9632 149.683 61.1367 149.02 61.1367H140.103C139.456 61.1367 138.761 60.9632 138.193 60.4902C137.641 60.0014 137.278 59.2288 137.278 58.3457V53.568C137.278 52.6692 137.641 51.8966 138.193 51.4235C138.761 50.9347 139.456 50.7612 140.103 50.7612ZM140.355 52.4484C140.055 52.4484 139.771 52.5431 139.613 52.685C139.44 52.8269 139.314 53.0003 139.314 53.4576V58.4403C139.314 58.8976 139.44 59.0868 139.613 59.2288C139.771 59.3707 140.055 59.4495 140.355 59.4495H148.767C149.067 59.4495 149.351 59.3707 149.509 59.2288C149.683 59.0868 149.809 58.8976 149.809 58.4403V53.4576C149.809 53.0003 149.683 52.8269 149.509 52.685C149.351 52.5431 149.067 52.4484 148.767 52.4484H140.355Z" fill="white"/>
<path d="M164.323 61.1367H162.619L155.185 50.7612H157.694L163.471 58.8188L169.231 50.7612H171.756L164.323 61.1367Z" fill="white"/>
<path d="M179.204 50.7612H180.908L188.342 61.1367H185.817L184.096 58.7399H176L174.28 61.1367H171.771L179.204 50.7612ZM180.056 53.0792L177.215 57.0527H182.897L180.056 53.0792Z" fill="white"/>
<path d="M188.773 50.7612H202.693V52.4484H196.743V61.1367H194.707V52.4484H188.773V50.7612Z" fill="white"/>
<path d="M206.809 50.7612H208.845V61.1367H206.809V50.7612Z" fill="white"/>
<path d="M216.428 50.7612H225.345C226.008 50.7612 226.686 50.9347 227.254 51.4235C227.807 51.8966 228.186 52.6692 228.186 53.568V58.3457C228.186 59.2288 227.807 60.0014 227.254 60.4902C226.686 60.9632 226.008 61.1367 225.345 61.1367H216.428C215.781 61.1367 215.086 60.9632 214.518 60.4902C213.966 60.0014 213.603 59.2288 213.603 58.3457V53.568C213.603 52.6692 213.966 51.8966 214.518 51.4235C215.086 50.9347 215.781 50.7612 216.428 50.7612ZM216.68 52.4484C216.38 52.4484 216.096 52.5431 215.938 52.685C215.765 52.8269 215.639 53.0003 215.639 53.4576V58.4403C215.639 58.8976 215.765 59.0868 215.938 59.2288C216.096 59.3707 216.38 59.4495 216.68 59.4495H225.092C225.392 59.4495 225.676 59.3707 225.834 59.2288C226.008 59.0868 226.134 58.8976 226.134 58.4403V53.4576C226.134 53.0003 226.008 52.8269 225.834 52.685C225.676 52.5431 225.392 52.4484 225.092 52.4484H216.68Z" fill="white"/>
<path d="M232.934 50.7612H234.717L244.581 58.3615V50.7612H246.617V61.1525H244.834L234.97 53.5365V61.1367H232.934V50.7612Z" fill="white"/>
<path d="M254.063 50.7612H261.859C262.506 50.7612 263.201 50.9347 263.769 51.4235C264.29 51.8493 264.637 52.5588 264.684 53.363H262.633C262.617 52.9688 262.506 52.8111 262.349 52.685C262.175 52.5431 261.907 52.4484 261.607 52.4484H254.315C254.016 52.4484 253.732 52.5431 253.574 52.685C253.4 52.8269 253.274 53.0003 253.274 53.4576V53.9937C253.274 54.451 253.4 54.6244 253.574 54.7664C253.732 54.9083 254.016 55.0029 254.315 55.0029H262.175C262.822 55.0029 263.517 55.1921 264.085 55.6652C264.637 56.1382 265 56.9108 265 57.8096V58.3457C264.984 59.2288 264.637 60.0014 264.069 60.4902C263.501 60.9632 262.822 61.1525 262.159 61.1525H254.063C253.4 61.1525 252.721 60.9632 252.153 60.4902C251.601 60.0014 251.238 59.2288 251.238 58.3457V58.0304H253.274C253.274 58.2354 253.274 58.4403 253.274 58.4403C253.274 58.8976 253.4 59.0868 253.574 59.2288C253.732 59.3707 254.016 59.4495 254.315 59.4495H261.907C262.207 59.4495 262.491 59.3707 262.648 59.2288C262.822 59.0868 262.948 58.8976 262.948 58.4403C262.948 58.4403 262.948 57.8412 262.948 57.5258C262.917 57.1947 262.806 57.0527 262.664 56.9266C262.491 56.7847 262.222 56.6901 261.923 56.6901H254.063C253.416 56.6901 252.721 56.5009 252.153 56.0278C251.617 55.5705 251.254 54.8294 251.238 53.9622V53.568C251.238 52.6692 251.601 51.8966 252.153 51.4235C252.721 50.9347 253.416 50.7612 254.063 50.7612Z" fill="white"/>
<path d="M92.5186 4.90527H99.4036V40.7682H92.5186V4.90527Z" fill="white"/>
<path d="M116.188 10.6826H129.531C131.719 10.6826 134.067 11.3366 135.989 12.9717C137.323 14.1708 138.337 15.9149 138.818 17.9315C138.978 18.749 139.031 19.5666 139.084 20.4386C139.245 22.8368 139.191 38.4246 139.138 40.7682H132.199C132.199 37.2801 132.199 21.3107 132.199 20.3841C132.146 18.2585 131.772 17.8225 131.185 17.332C130.598 16.8414 129.691 16.5144 128.677 16.5144H113.626C112.558 16.5144 111.651 16.8414 111.064 17.332C110.53 17.8225 110.103 18.2585 110.103 20.3841C110.103 20.7111 109.996 40.7682 109.996 40.7682H103.111V10.7371H109.996V12.8082C111.864 11.2821 114.106 10.6826 116.188 10.6826Z" fill="white"/>
<path d="M154.488 0H164.415V5.83182H155.342C153.954 5.83182 153.367 6.15884 152.833 6.64936C151.873 7.57592 151.819 7.84843 151.819 10.6826H164.415V16.5144H151.819V40.7682H144.881V16.5144H140.504V10.7371H144.934C144.934 10.7371 144.988 8.01194 145.201 7.2489C145.628 5.17778 146.642 3.43369 148.03 2.28913C149.951 0.654034 152.3 0 154.488 0Z" fill="white"/>
<path d="M165.739 1.7441H172.624V7.57592H165.739V1.7441ZM165.739 10.7371H172.624V40.7682H165.739V10.7371Z" fill="white"/>
<path d="M189.254 10.6826H202.597C204.785 10.6826 207.134 11.3366 209.055 12.9717C210.389 14.1708 211.404 15.9149 211.884 17.9315C212.044 18.749 212.097 19.5666 212.151 20.4386C212.311 22.8368 212.257 38.4246 212.204 40.7682H205.266C205.266 37.2801 205.266 21.3107 205.266 20.3841C205.212 18.2585 204.839 17.8225 204.252 17.332C203.664 16.8414 202.757 16.5144 201.743 16.5144H186.692C185.625 16.5144 184.717 16.8414 184.13 17.332C183.596 17.8225 183.169 18.2585 183.169 20.3841C183.169 20.7111 183.063 40.7682 183.063 40.7682H176.178V10.7371H183.063V12.8082C184.931 11.2821 187.172 10.6826 189.254 10.6826Z" fill="white"/>
<path d="M215.492 1.7441H222.377V7.57592H215.492V1.7441ZM215.492 10.7371H222.377V40.7682H215.492V10.7371Z" fill="white"/>
<path d="M223.316 10.7371H233.029L244.131 21.3652L255.232 10.7371H265L248.828 25.8889L264.733 40.7682H254.966L244.131 30.3582L233.296 40.7682H223.529L239.434 25.8889L223.316 10.7371Z" fill="white"/>
</svg>
